# xmcd CD Database Entry
#
# Track frame offsets:
# 150
# 14927
# 30186
# 49269
# 68574
# 86590
# 105304
# 119936
# 135851
# 153241
#
# Disc length: 2250 seconds
#
# Revision: 4
# Processed by: cddbd v1.5PL3 Copyright (c) Steve Scherf et al.
# Submitted via: tcd 2.0b
#
DISCID=7a08c80a
DTITLE=Partizan - Bucuresti
DYEAR=1900
DGENRE=
TTITLE0=Deplasarea obiectelor
TTITLE1=Mii de scuze
TTITLE2=Pornesc primul de la stop
TTITLE3=Hai, mai fa, mai fa
TTITLE4=Android Leontin
TTITLE5=30 fete
TTITLE6=Salajan - Salajan
TTITLE7=M-am nascut in Bucuresti
TTITLE8=I.O.R.
TTITLE9=Papusea masculina
EXTD=
EXTT0=
EXTT1=
EXTT2=
EXTT3=
EXTT4=
EXTT5=
EXTT6=
EXTT7=
EXTT8=
EXTT9=
PLAYORDER=
